<?xml version="1.0" encoding="UTF-8"?><svg id="Layer_1" xmlns="http://www.w3.org/2000/svg" viewBox="0 0 24 24"><defs><style>.cls-1{fill:#a3dc80;}.cls-2{fill:#fff;}.cls-3{fill:#565656;}.cls-4{fill:#6e6e6e;}</style></defs><path class="cls-3" d="M3.38,20.48h17.24c.19,0,.34.15.34.34v1.32c0,.19-.15.34-.34.34H3.38c-.19,0-.34-.15-.34-.34v-1.32c0-.19.15-.34.34-.34Z"/><path class="cls-4" d="M19.5,18.63v1.85H4.5v-1.85c0-.2.16-.36.36-.36h14.29c.2,0,.36.16.36.36Z"/><path class="cls-1" d="M18.16,7.52c-.54-2.84-3.09-5-6.16-5s-5.62,2.15-6.16,5c-.07.36-.1.74-.1,1.12v9.63h12.53v-9.63c0-.38-.04-.75-.1-1.12ZM12,16.22c-.47,0-.86-.39-.86-.86,0-.25.11-.48.28-.64.15-.14.36-.22.58-.22s.43.08.58.22c.17.16.28.38.28.64,0,.48-.39.86-.86.86ZM14.03,6.77l-.18.74-1.31,5.39c-.14.56-.94.56-1.07,0l-1.31-5.39-.18-.74c-.08-.35.18-.68.54-.68h2.99c.36,0,.62.34.54.68Z"/><rect class="cls-1" x="19.5" y="10.17" width="4.44" height=".73" rx=".35" ry=".35"/><rect class="cls-1" x=".06" y="10.17" width="4.44" height=".73" rx=".35" ry=".35"/><rect class="cls-1" x="17.72" y="2.85" width="4.44" height=".73" rx=".35" ry=".35" transform="translate(3.57 15.04) rotate(-45)"/><rect class="cls-1" x="1.84" y="2.85" width="4.44" height=".73" rx=".35" ry=".35" transform="translate(3.46 -1.93) rotate(45)"/><path class="cls-2" d="M14.03,6.77l-.18.74-1.31,5.39c-.14.56-.94.56-1.07,0l-1.31-5.39-.18-.74c-.08-.35.18-.68.54-.68h2.99c.36,0,.62.34.54.68Z"/><path class="cls-2" d="M12.86,15.36c0,.48-.39.86-.86.86s-.86-.39-.86-.86c0-.25.11-.48.28-.64.15-.14.36-.22.58-.22s.43.08.58.22c.17.16.28.38.28.64Z"/></svg>