<?xml version="1.0" encoding="UTF-8"?><svg id="Layer_1" xmlns="http://www.w3.org/2000/svg" viewBox="0 0 24 24"><defs><style>.cls-1{fill:#fff;}</style></defs><path class="cls-1" d="M24,13.72v.02l-.04.6h0c0,.1,0,.19-.02.29l-.14,1.28c-.14,1.25-1.27,2.16-2.52,2.02l-4.58-.5c-1.25-.14-2.16-1.27-2.02-2.52l.14-1.27c0-.06.02-.11.03-.17.04-.22.11-.42.21-.61l-.16-.11h-.01s0,0,0,0c-.73-.41-1.62-.65-2.59-.65h-.57c-.97,0-1.86.24-2.59.65h0s-.01,0-.01,0l-.16.11c.1.19.17.39.21.61,0,.05.02.11.03.17l.14,1.27c.14,1.26-.77,2.39-2.02,2.52l-4.58.5c-1.26.14-2.39-.77-2.52-2.02l-.14-1.28c0-.09-.02-.19-.02-.28H.04s-.04-.61-.04-.61v-.02c0-.93.26-1.81.73-2.63.64-1.11,1.67-2.1,2.98-2.9.09-.05.18-.11.27-.16.17-.1.34-.19.52-.28.3-.15.61-.29.92-.43.08-.03.17-.07.25-.1.22-.09.45-.17.67-.25.1-.03.2-.07.3-.1,0,0,.02,0,.03-.01,0,0,0,0,.01,0,.2-.06.41-.12.62-.18.07-.02.14-.04.22-.06.17-.04.34-.08.51-.12.16-.03.31-.07.47-.1.14-.03.29-.05.43-.08.03,0,.06,0,.09-.02.29-.05.58-.09.88-.12.19-.02.37-.04.56-.06.16-.01.32-.03.48-.03.35-.02.7-.03,1.06-.03s.7,0,1.04.03c.16,0,.32.02.48.03.19.01.38.03.56.06.3.03.59.07.88.12.03,0,.06,0,.09.02.14.03.29.05.43.08.16.03.31.06.47.1.17.04.34.08.51.12.06.02.11.03.17.05.02,0,.03,0,.05.01.2.05.39.11.59.17,0,0,.02,0,.03,0,.02,0,.03,0,.04.02.21.07.41.13.61.21,0,0,.01,0,.02,0,.1.04.2.08.3.12.1.04.21.08.31.13.2.08.4.17.6.27.1.04.19.09.29.14.19.1.37.2.55.3.09.05.18.11.27.16.2.12.39.24.57.37,1.04.72,1.87,1.58,2.41,2.52.47.82.73,1.71.73,2.63Z"/></svg>