<?xml version="1.0" encoding="UTF-8"?>
<svg id="Layer_1" data-name="Layer 1" xmlns="http://www.w3.org/2000/svg" viewBox="0 0 48 48">
  <defs>
    <style>
      .cls-1 {
        fill: #565656;
      }
    </style>
  </defs>
  <path class="cls-1" d="M44.54,7.59L10.77,4.93c-1.97-.16-3.69,1.32-3.85,3.28l-.49,6.14h-2.7c-1.97,0-3.57,1.6-3.57,3.57v21.57c0,1.97,1.6,3.58,3.57,3.58h33.87c1.97,0,3.57-1.6,3.57-3.58v-3.37l1.09.08c1.97.16,3.69-1.32,3.85-3.28l1.69-21.5c.15-1.97-1.32-3.69-3.28-3.85h0ZM5.14,33.26c0-2.87,2.32-5.19,5.19-5.19s5.19,2.32,5.19,5.19-2.32,5.19-5.19,5.19-5.19-2.32-5.19-5.19ZM35.26,35.17c.48,0,.87.39.87.87v.23c0,.48-.39.87-.87.87h-15.56c-.48,0-.87-.39-.87-.87v-.23c0-.49.39-.87.87-.87h15.56ZM23.1,31.48v-.23c0-.49.39-.87.87-.87h11.29c.48,0,.87.39.87.87v.23c0,.48-.39.87-.87.87h-11.29c-.48,0-.87-.39-.87-.87ZM39.17,25.84H2.11v-2.04h37.05v2.04ZM39.17,21.4H2.11v-2.04h37.05v2.04ZM45.8,11.29l-1.69,21.47c-.08,1.02-.97,1.78-1.99,1.7l-.93-.07v-16.46c0-1.97-1.6-3.57-3.57-3.57H8.39l.47-5.98c.08-1.02.97-1.78,1.99-1.7l33.25,2.62c1.02.08,1.78.97,1.7,1.99h0Z"/>
</svg>