<?xml version="1.0" encoding="UTF-8"?><svg id="Layer_1" xmlns="http://www.w3.org/2000/svg" viewBox="0 0 24 24"><defs><style>.cls-1{fill:#565656;}</style></defs><path class="cls-1" d="M16.79,0H7.21c-.92,0-1.67.79-1.67,1.76v20.48c0,.97.75,1.76,1.67,1.76h9.58c.92,0,1.67-.79,1.67-1.76V1.76c0-.97-.75-1.76-1.67-1.76ZM9.32,1.36c0-.2.15-.36.34-.36h4.68c.19,0,.34.16.34.36v.28c0,.2-.15.36-.34.36h-4.68c-.19,0-.34-.16-.34-.36v-.28ZM12,22.66c-.62,0-1.12-.53-1.12-1.18s.5-1.18,1.12-1.18,1.12.53,1.12,1.18-.5,1.18-1.12,1.18ZM17.22,18.54H6.78V2.92h10.44v15.62Z"/></svg>