<?xml version="1.0" encoding="UTF-8"?><svg id="Layer_1" xmlns="http://www.w3.org/2000/svg" viewBox="0 0 24 24"><defs><style>.cls-1{fill:#565656;}</style></defs><circle class="cls-1" cx="11.82" cy="21.98" r="2.02"/><path class="cls-1" d="M18.69,6.04v1.31c0,2.92-2.07,5.36-4.83,5.91v4.18c0,.65-.53,1.16-1.16,1.16h-1.76c-.63,0-1.16-.51-1.16-1.16v-5.91c.17-.78.84-1.37,1.66-1.41.18.04.37.05.55.05h.01c.69,0,1.31-.2,1.85-.54.98-.61,1.62-1.7,1.62-2.94,0-1.91-1.56-3.47-3.48-3.47-1.68,0-3.08,1.19-3.4,2.77v.03c-.01.26-.24.48-.5.48h-2.28c-.25,0-.48-.2-.5-.45v-.05h0c.04-3.33,2.73-5.99,6.04-5.99h1.29c3.34,0,6.04,2.71,6.04,6.04Z"/></svg>